<?xml version="1.0" encoding="UTF-8"?>
<svg width="40px" height="40px" viewBox="0 0 40 40" version="1.1" xmlns="http://www.w3.org/2000/svg" xmlns:xlink="http://www.w3.org/1999/xlink">
    <!-- Generator: Sketch 54.1 (76490) - https://sketchapp.com -->
    <title>Brand / Reclame Aqui / Stamp / Em-avaliacao</title>
    <desc>Created with Sketch.</desc>
    <g id="Brand-/-Reclame-Aqui-/-Stamp-/-Em-avaliacao" stroke="none" stroke-width="1" fill="none" fill-rule="evenodd">
        <g id="em-analise-19" transform="translate(2.000000, 0.000000)">
            <path d="M35.928,17.6144578 C35.928,27.3493976 27.888,35.253012 17.952,35.253012 C8.016,35.253012 0,27.373494 0,17.6144578 C0,7.87951807 8.04,0 17.952,0 C27.864,0 35.928,7.87951807 35.928,17.6144578 Z" id="Path" fill="#000000" fill-rule="nonzero"></path>
            <ellipse id="Oval" fill="#C36F29" fill-rule="nonzero" cx="17.952" cy="17.6144578" rx="16.776" ry="16.8433735"></ellipse>
            <path d="M34.2,17.3493976 C34.2,26.4096386 26.928,33.7590361 17.952,33.7590361 C8.976,33.7590361 1.704,26.4096386 1.704,17.3493976 C1.728,8.28915663 9,0.963855422 17.952,0.963855422 C26.928,0.963855422 34.2,8.28915663 34.2,17.3493976 Z" id="Path" fill="#F18921" fill-rule="nonzero"></path>
            <g id="Group" transform="translate(13.920000, 23.132530)" fill-rule="nonzero">
                <path d="M0.744,1.85542169 C0.744,1.85542169 4.752,1.25301205 5.952,2 C5.952,1.97590361 4.2,-1.01204819 0.744,1.85542169 Z" id="Path" fill="#C36F29"></path>
                <path d="M0.288,1.03614458 C0.72,0.843373494 1.056,0.602409639 1.44,0.506024096 C3.288,-0.0240963855 5.04,0.21686747 6.6,1.42168675 C6.696,1.4939759 6.744,1.6626506 6.792,1.78313253 C6.648,1.78313253 6.48,1.78313253 6.36,1.75903614 C4.848,1.27710843 3.336,0.771084337 1.728,1.22891566 C1.248,1.37349398 0.864,1.59036145 0.648,2.07228916 C0.6,2.1686747 0.456,2.24096386 0.36,2.31325301 C0.288,2.19277108 0.12,2.07228916 0.12,1.97590361 C0.12,1.63855422 0.216,1.34939759 0.288,1.03614458 Z" id="Path" fill="#000000"></path>
                <path d="M1.92,2.43373494 C2.544,2 3.168,2.02409639 3.816,2.1686747 C4.032,2.21686747 4.248,2.3373494 4.44,2.45783133 C4.536,2.53012048 4.608,2.69879518 4.608,2.81927711 C4.608,2.89156627 4.416,3.01204819 4.296,3.01204819 C3.576,3.03614458 2.88,3.01204819 2.16,3.01204819 C2.04,3.01204819 1.872,2.91566265 1.848,2.84337349 C1.824,2.69879518 1.896,2.53012048 1.92,2.43373494 Z" id="Path" fill="#000000"></path>
            </g>
            <g id="Group" transform="translate(18.720000, 6.746988)">
                <path d="M1.44,11.3975904 C1.44,11.3975904 3.192,11.0120482 5.352,11.0843373 C6.384,11.1084337 7.536,11.373494 8.592,11.5662651 C8.568,11.5662651 5.088,8.19277108 1.44,11.3975904 Z" id="Path" fill="#C36F29"></path>
                <path d="M9.24,1.75903614 C8.64,1.44578313 8.016,1.18072289 7.344,1.06024096 C6.264,0.86746988 5.256,1.08433735 4.32,1.63855422 C2.832,2.53012048 1.824,3.8313253 1.248,5.44578313 C1.08,5.95180723 0.912,6.43373494 0.744,6.93975904 C0.648,7.20481928 0.528,7.44578313 0.288,7.61445783 C0.24,7.63855422 0.168,7.63855422 0.12,7.63855422 C0.12,7.56626506 0.072,7.4939759 0.096,7.44578313 C0.36,6.69879518 0.6,5.95180723 0.888,5.20481928 C1.512,3.4939759 2.496,2.02409639 4.08,1.08433735 C5.328,0.337349398 6.672,0.120481928 8.088,0.578313253 C8.568,0.746987952 9,1.01204819 9.288,1.46987952 C9.312,1.59036145 9.384,1.6626506 9.24,1.75903614 Z" id="Path" fill="#C36F29"></path>
                <path d="M7.92,10.7228916 C7.344,10.3614458 6.696,10.1686747 6.024,10.1204819 C4.824,10.0240964 3.624,10.0481928 2.496,10.5542169 C2.328,10.626506 2.256,10.6024096 2.136,10.4578313 C1.68,9.8313253 1.416,9.15662651 1.32,8.38554217 C1.2,6.96385542 1.536,5.68674699 2.4,4.57831325 C3.144,3.61445783 4.176,3.22891566 5.352,3.3253012 C7.488,3.51807229 9.192,5.22891566 9.336,7.34939759 C9.456,8.69879518 8.976,9.8313253 7.92,10.7228916 Z M6.504,7.87951807 C6.24,8 6.024,8.12048193 5.784,8.1686747 C5.52,8.21686747 5.232,8.1686747 5.04,7.95180723 C4.632,7.54216867 4.656,6.96385542 5.112,6.36144578 C4.872,6.21686747 4.608,6.26506024 4.344,6.3373494 C3.816,6.5060241 3.384,7.13253012 3.336,7.78313253 C3.264,8.79518072 4.2,9.6626506 5.208,9.54216867 C5.856,9.46987952 6.36,9.15662651 6.528,8.5060241 C6.576,8.28915663 6.624,8.04819277 6.504,7.87951807 Z" id="Shape" fill="#FFFFFF"></path>
                <path d="M2.808,10.5783133 C2.808,10.5783133 -0.216,5.3253012 5.016,3.27710843 L4.68,2.96385542 C4.68,2.96385542 -1.512,5.06024096 2.208,10.7710843 L2.808,10.5783133 Z" id="Path" fill="#DEE9EA" fill-rule="nonzero"></path>
                <path d="M7.128,10.5783133 C7.128,10.5783133 8.952,9.8313253 9.384,7.18072289 L9.672,7.18072289 C9.672,7.18072289 9.984,9.13253012 7.968,11.060241 L7.128,10.5783133 Z" id="Path" fill="#DEE9EA" fill-rule="nonzero"></path>
                <path d="M8.352,11.0843373 C8.448,11.2048193 8.544,11.2771084 8.592,11.3493976 C8.616,11.4216867 8.616,11.5421687 8.568,11.5662651 C8.52,11.6144578 8.4,11.6144578 8.352,11.5903614 C7.656,11.0120482 6.792,10.7951807 5.928,10.6987952 C4.536,10.5542169 3.168,10.6746988 1.872,11.3012048 C1.776,11.3493976 1.68,11.3975904 1.584,11.4216867 C1.536,11.4457831 1.44,11.4216867 1.416,11.373494 C1.392,11.3253012 1.392,11.253012 1.44,11.2048193 C1.488,11.1325301 1.56,11.0843373 1.608,11.0120482 C1.68,10.9638554 1.752,10.9156627 1.824,10.8674699 C1.824,10.8433735 1.824,10.8192771 1.8,10.7951807 C1.128,9.95180723 0.816,8.96385542 0.792,7.87951807 C0.744,6.5060241 1.176,5.27710843 1.968,4.1686747 C2.736,3.10843373 3.792,2.6746988 5.088,2.62650602 C7.032,2.57831325 9.144,4.14457831 9.624,5.8313253 C10.176,7.73493976 9.96,9.4939759 8.472,10.939759 C8.448,11.0120482 8.4,11.0361446 8.352,11.0843373 Z M7.92,10.7228916 C8.976,9.8313253 9.456,8.6746988 9.36,7.3253012 C9.216,5.20481928 7.488,3.4939759 5.376,3.30120482 C4.176,3.20481928 3.168,3.59036145 2.424,4.55421687 C1.56,5.6626506 1.2,6.93975904 1.344,8.36144578 C1.416,9.13253012 1.68,9.8313253 2.16,10.4337349 C2.256,10.5783133 2.352,10.6024096 2.52,10.5301205 C3.648,10.0240964 4.848,10 6.048,10.0963855 C6.696,10.1686747 7.344,10.3614458 7.92,10.7228916 Z" id="Shape" fill="#000000" fill-rule="nonzero"></path>
                <path d="M8.952,1.34939759 C8.328,1.06024096 7.704,0.843373494 7.008,0.746987952 C5.904,0.602409639 4.92,0.86746988 4.008,1.46987952 C2.568,2.40963855 1.608,3.75903614 1.104,5.42168675 C0.96,5.92771084 0.816,6.43373494 0.672,6.93975904 C0.6,7.20481928 0.48,7.46987952 0.24,7.63855422 C0.192,7.6626506 0.12,7.6626506 0.072,7.6626506 C0.072,7.59036145 0.024,7.51807229 0.048,7.46987952 C0.264,6.69879518 0.48,5.95180723 0.72,5.18072289 C1.272,3.44578313 2.184,1.92771084 3.744,0.915662651 C4.968,0.120481928 6.288,-0.144578313 7.728,0.240963855 C8.232,0.385542169 8.664,0.626506024 8.952,1.06024096 C9.024,1.18072289 9.072,1.27710843 8.952,1.34939759 Z" id="Path" fill="#000000" fill-rule="nonzero"></path>
                <path d="M6.504,7.87951807 C6.624,8.04819277 6.576,8.28915663 6.528,8.53012048 C6.336,9.18072289 5.856,9.4939759 5.208,9.56626506 C4.2,9.68674699 3.264,8.81927711 3.336,7.80722892 C3.384,7.13253012 3.816,6.5060241 4.344,6.36144578 C4.584,6.28915663 4.848,6.24096386 5.112,6.38554217 C4.656,6.98795181 4.632,7.56626506 5.04,7.97590361 C5.256,8.19277108 5.52,8.24096386 5.784,8.19277108 C6.024,8.12048193 6.24,8 6.504,7.87951807 Z" id="Path" fill="#000000" fill-rule="nonzero"></path>
            </g>
            <g id="Group" transform="translate(6.720000, 9.397590)">
                <path d="M1.392,8.26506024 C1.224,8.40963855 5.328,7.37349398 7.656,8.93975904 C9.936,10.5301205 4.776,5.06024096 1.392,8.26506024 Z" id="Path" fill="#C36F29" fill-rule="nonzero"></path>
                <path d="M0.576,0.939759036 C0.576,0.939759036 0.744,3.06024096 2.688,3.78313253 L3.384,3.44578313 L2.4,1.95180723 L1.608,0.795180723 L1.2,0.43373494 L0.576,0.939759036 Z" id="Path" fill="#C36F29"></path>
                <path d="M7.992,6.43373494 C7.992,6.43373494 9.6,7.01204819 9.816,6.19277108 L8.856,5.97590361 L8.352,5.6626506 L7.992,6.43373494 Z" id="Path" fill="#C36F29"></path>
                <path d="M8.088,8.72289157 C8.088,8.72289157 9.408,7.06024096 8.496,5.51807229 C8.304,5.20481928 8.208,4.77108434 8.208,4.77108434 L7.392,4.28915663 L5.16,4.04819277 L4.056,3.71084337 L2.88,3.42168675 L2.616,5.56626506 C2.616,5.56626506 2.256,6.3373494 2.832,7.37349398 L4.08,7.18072289 L4.872,7.39759036 L5.856,7.6626506 L7.104,8.14457831 L8.088,8.72289157 Z" id="Path" fill="#FFFFFF" fill-rule="nonzero"></path>
                <path d="M2.688,3.90361446 C2.688,3.90361446 1.632,6.69879518 2.976,7.22891566 L3.72,7.22891566 C3.72,7.22891566 2.208,5.75903614 3.72,3.30120482 L2.976,3.37349398 L2.688,3.90361446 Z" id="Path" fill="#DEE9EA" fill-rule="nonzero"></path>
                <path d="M8.16,8.60240964 C8.232,8.6746988 8.304,8.74698795 8.328,8.81927711 C8.352,8.89156627 8.328,9.01204819 8.304,9.10843373 C8.208,9.08433735 8.112,9.08433735 8.04,9.03614458 C6.744,7.92771084 5.232,7.46987952 3.552,7.51807229 C3.12,7.54216867 2.688,7.63855422 2.256,7.73493976 C2.088,7.78313253 1.92,7.92771084 1.752,8 C1.68,8.04819277 1.536,8.09638554 1.512,8.04819277 C1.464,7.97590361 1.392,7.8313253 1.44,7.78313253 C1.56,7.59036145 1.68,7.39759036 1.872,7.30120482 C2.448,6.93975904 3.12,6.79518072 3.792,6.77108434 C4.176,6.74698795 4.56,6.79518072 4.944,6.81927711 C6.504,6.91566265 7.752,8.21686747 8.16,8.60240964 Z" id="Path" fill="#000000" fill-rule="nonzero"></path>
                <path d="M7.368,4.55421687 C7.008,4.60240964 6.672,4.65060241 6.312,4.69879518 C6.312,4.69879518 6.312,4.69879518 6.312,4.69879518 C5.688,4.77108434 5.064,4.6746988 4.512,4.40963855 C4.176,4.24096386 3.84,4.09638554 3.528,3.92771084 C3.264,3.80722892 2.808,4.07228916 2.76,4.36144578 C2.736,4.48192771 2.64,4.57831325 2.592,4.6746988 C2.472,4.60240964 2.304,4.55421687 2.232,4.43373494 C2.064,4.1686747 2.184,3.80722892 2.472,3.59036145 C2.592,3.4939759 2.736,3.44578313 2.88,3.37349398 C2.208,2.55421687 1.56,1.71084337 1.344,0.626506024 C0.912,0.722891566 0.672,1.01204819 0.648,1.42168675 C0.648,1.4939759 0.648,1.56626506 0.624,1.63855422 C0.6,1.71084337 0.528,1.80722892 0.48,1.8313253 C0.408,1.85542169 0.288,1.80722892 0.24,1.73493976 C0.168,1.59036145 0.096,1.42168675 0.096,1.25301205 C0.072,0.554216867 0.84,-0.0722891566 1.512,0.0722891566 C1.632,0.0963855422 1.752,0.265060241 1.848,0.385542169 C2.28,1.06024096 2.64,1.75903614 3.12,2.38554217 C3.912,3.46987952 5.04,3.90361446 6.36,3.92771084 C6.552,3.92771084 6.744,3.92771084 6.936,3.92771084 C7.176,3.95180723 7.368,3.95180723 7.416,3.61445783 C7.416,3.54216867 7.608,3.42168675 7.704,3.42168675 C7.776,3.42168675 7.872,3.56626506 7.92,3.6626506 C8.04,3.97590361 8.088,4.28915663 8.232,4.57831325 C8.592,5.39759036 9.168,5.75903614 10.08,5.73493976 C10.2,5.73493976 10.32,5.80722892 10.44,5.85542169 C10.344,5.95180723 10.248,6.09638554 10.128,6.14457831 C9.264,6.48192771 8.352,6.1686747 7.848,5.37349398 C7.656,5.15662651 7.536,4.86746988 7.368,4.55421687 Z" id="Path" fill="#000000" fill-rule="nonzero"></path>
                <path d="M6.888,6.12048193 C6.96,6.24096386 6.936,6.38554217 6.888,6.53012048 C6.768,6.93975904 6.456,7.13253012 6.048,7.20481928 C5.4,7.27710843 4.824,6.72289157 4.872,6.09638554 C4.896,5.6626506 5.184,5.27710843 5.52,5.18072289 C5.688,5.13253012 5.832,5.10843373 6,5.20481928 C5.712,5.59036145 5.688,5.95180723 5.952,6.21686747 C6.096,6.3373494 6.264,6.38554217 6.432,6.3373494 C6.576,6.28915663 6.72,6.19277108 6.888,6.12048193 Z" id="Path" fill="#000000" fill-rule="nonzero"></path>
            </g>
            <path d="M10.056,23.0361446 C10.056,23.0361446 11.856,23.6144578 11.952,25.5421687 C12.072,27.9277108 10.584,28.8915663 10.584,28.8915663 L10.056,23.0361446 Z" id="Path" fill="#C36F29" fill-rule="nonzero"></path>
            <path d="M17.256,28.6506024 C17.256,28.6506024 18.288,27.253012 20.568,27.1807229 C22.848,27.1325301 23.088,29.4939759 23.088,29.4939759 L17.256,28.6506024 Z" id="Path" fill="#C36F29" fill-rule="nonzero"></path>
            <g id="Group" transform="translate(4.560000, 22.650602)">
                <path d="M0.24,10.8674699 C0.24,10.8674699 1.104,6.1686747 5.16,4.93975904 C5.16,4.93975904 8.544,6.31325301 8.976,6.77108434 C8.976,6.77108434 15.288,3.90361446 18,6.28915663 C18.456,6.69879518 19.464,7.90361446 18.192,8.74698795 C17.88,8.93975904 17.64,8.98795181 16.728,8.53012048 C15.816,8.07228916 12.264,9.08433735 12.264,9.08433735 C12.264,9.08433735 12.744,11.9518072 11.352,12.4337349 C11.352,12.4337349 11.304,14.2168675 9.528,14.8433735 C9.528,14.8433735 9.312,17.7590361 4.512,16.5301205 C4.536,16.5301205 -0.288,16.4096386 0.24,10.8674699 Z" id="Path" fill="#F18921" fill-rule="nonzero"></path>
                <path d="M12.048,9.27710843 C12.048,9.27710843 12.528,12.1445783 11.136,12.626506 C11.136,12.626506 11.088,14.4096386 9.312,15.0361446 C9.312,15.0361446 8.904,16.6987952 7.152,17.1807229 C7.056,17.0120482 7.008,16.8433735 7.056,16.6987952 C7.944,16.2650602 8.4,15.5662651 8.664,14.8674699 C9.84,14.0722892 10.608,12.4578313 10.608,12.4578313 C10.608,12.4578313 11.448,10.6024096 10.992,9.37349398 C11.136,9.27710843 12.048,9.27710843 12.048,9.27710843 Z" id="Path" fill="#C36F29" fill-rule="nonzero"></path>
                <path d="M12.24,8.98795181 C12.24,8.98795181 11.328,9.20481928 10.632,9.42168675" id="Path" stroke="#010101" stroke-width="0.819783133" stroke-linecap="round"></path>
                <path d="M18.24,6.74698795 C18.24,6.74698795 18.144,7.71084337 16.824,7.44578313 C15.24,7.13253012 12.96,7.97590361 12.36,8.96385542 L15.792,8.43373494 L17.232,8.74698795 L18.696,8.1686747 L18.24,6.74698795 Z" id="Path" fill="#C36F29" fill-rule="nonzero"></path>
                <path d="M6.648,5.78313253 L6.456,6.40963855 C6.456,6.40963855 7.344,6.24096386 8.928,7.22891566 C8.76,6.31325301 7.992,5.85542169 7.992,5.85542169 L6.648,5.78313253 Z" id="Path" fill="#C36F29" fill-rule="nonzero"></path>
                <path d="M0.288,10.5542169 C0.288,10.5542169 1.104,6.14457831 5.16,4.91566265 C5.16,4.91566265 7.344,5.3253012 8.976,6.74698795 C8.976,6.74698795 15.288,3.87951807 18,6.26506024 C18.456,6.6746988 19.008,7.34939759 18.36,8.26506024 C18.144,8.57831325 17.52,8.81927711 16.728,8.5060241 C15.768,8.12048193 12.216,8.96385542 12.216,8.96385542 C12.216,8.96385542 13.032,11.3493976 11.304,12.313253 C11.304,12.313253 11.52,14.3614458 9.48,14.7228916 C9.48,14.7228916 9.456,17.6385542 4.512,16.5060241 C1.992,15.9518072 -0.576,15.4698795 0.288,10.5542169 Z" id="Path" stroke="#010101" stroke-width="0.819783133"></path>
                <path d="M11.328,12.3373494 C11.328,12.3373494 10.536,12.626506 9.936,12.4819277" id="Path" stroke="#010101" stroke-width="0.819783133" stroke-linecap="round"></path>
                <path d="M9.504,14.746988 C9.504,14.746988 8.784,14.8674699 8.208,14.8433735" id="Path" stroke="#010101" stroke-width="0.819783133" stroke-linecap="round"></path>
                <path d="M1.44,7.56626506 C1.776,6.6746988 3.696,4.81927711 3.456,3.68674699 C3.192,2.57831325 3.456,2.36144578 3.192,1.73493976 C2.928,1.13253012 3.384,0.289156627 4.584,0.21686747 C5.784,0.144578313 7.008,3.61445783 6.168,6.69879518 L1.488,8.07228916 C1.488,8.09638554 1.104,8.43373494 1.44,7.56626506 Z" id="Path" fill="#F18921" fill-rule="nonzero"></path>
                <path d="M3.408,0.86746988 C2.784,1.15662651 3,1.87951807 3.216,2.36144578 C3.48,2.96385542 3.216,3.03614458 3.456,4.1686747 C3.72,5.27710843 1.992,6.91566265 2.352,6.72289157 C2.736,6.5060241 3.456,6.40963855 4.08,5.15662651 C4.824,3.59036145 3.432,0.915662651 3.408,0.86746988 Z" id="Path" fill="#C36F29" fill-rule="nonzero"></path>
                <path d="M1.416,7.85542169 C1.416,7.85542169 3.312,4.81927711 3.456,3.68674699 C3.576,2.77108434 3.528,2.45783133 3.312,1.78313253 C3.12,1.13253012 3.384,0.289156627 4.584,0.240963855 C5.784,0.192771084 7.32,3.18072289 6.504,6.26506024" id="Path" stroke="#010101" stroke-width="0.81973494" stroke-linecap="round"></path>
            </g>
        </g>
    </g>
</svg>